<svg width="96" height="96" xmlns="http://www.w3.org/2000/svg" xmlns:xlink="http://www.w3.org/1999/xlink" xml:space="preserve" overflow="hidden"><defs><clipPath id="clip0"><rect x="437" y="447" width="96" height="96"/></clipPath></defs><g clip-path="url(#clip0)" transform="translate(-437 -447)"><path d="M510 529 460 529 460 467 471 467 471 473 499 473 499 467 510 467ZM485 459C486.657 459 488 460.343 488 462 488 463.657 486.657 465 485 465 483.343 465 482 463.657 482 462 481.973 460.37 483.272 459.027 484.901 459 484.934 458.999 484.967 458.999 485 459ZM512 461 495 461 495 459C495 456.791 493.209 455 491 455L479 455C476.791 455 475 456.791 475 459L475 461 458 461C455.791 461 454 462.791 454 465L454 531C454 533.209 455.791 535 458 535L512 535C514.209 535 516 533.209 516 531L516 465C516 462.791 514.209 461 512 461Z" fill="#12AFF4"/><path d="M487 481 504 481 504 485 487 485Z" fill="#12AFF4"/><path d="M487 493 504 493 504 497 487 497Z" fill="#12AFF4"/><path d="M487 505 504 505 504 509 487 509Z" fill="#12AFF4"/><path d="M487 517 504 517 504 521 487 521Z" fill="#12AFF4"/><path d="M466.707 482.8 468.8 480.707 471.4 483.307 478 476.707 480.093 478.8 471.4 487.493 466.707 482.8Z" fill="#12AFF4"/><path d="M466.707 494.8 468.8 492.707 471.4 495.307 478 488.707 480.093 490.8 471.4 499.493 466.707 494.8Z" fill="#12AFF4"/><path d="M466.707 506.8 468.8 504.707 471.4 507.307 478 500.707 480.093 502.8 471.4 511.493 466.707 506.8Z" fill="#12AFF4"/><path d="M466.707 518.8 468.8 516.707 471.4 519.307 478 512.707 480.093 514.8 471.4 523.493 466.707 518.8Z" fill="#12AFF4"/></g></svg>