<svg width="96" height="96" xmlns="http://www.w3.org/2000/svg" xmlns:xlink="http://www.w3.org/1999/xlink" xml:space="preserve" overflow="hidden"><defs><clipPath id="clip0"><rect x="180" y="568" width="96" height="96"/></clipPath></defs><g clip-path="url(#clip0)" transform="translate(-180 -568)"><path d="M253 650 203 650 203 588 214 588 214 594 242 594 242 588 253 588ZM228 580C229.657 580 231 581.343 231 583 231 584.657 229.657 586 228 586 226.343 586 225 584.657 225 583 224.973 581.37 226.272 580.027 227.901 580 227.934 579.999 227.967 579.999 228 580ZM255 582 238 582 238 580C238 577.791 236.209 576 234 576L222 576C219.791 576 218 577.791 218 580L218 582 201 582C198.791 582 197 583.791 197 586L197 652C197 654.209 198.791 656 201 656L255 656C257.209 656 259 654.209 259 652L259 586C259 583.791 257.209 582 255 582Z" fill="#02609E"/><path d="M230 602 247 602 247 606 230 606Z" fill="#02609E"/><path d="M230 614 247 614 247 618 230 618Z" fill="#02609E"/><path d="M230 626 247 626 247 630 230 630Z" fill="#02609E"/><path d="M230 638 247 638 247 642 230 642Z" fill="#02609E"/><path d="M209.707 603.8 211.8 601.707 214.4 604.307 221 597.707 223.093 599.8 214.4 608.493 209.707 603.8Z" fill="#02609E"/><path d="M209.707 615.8 211.8 613.707 214.4 616.307 221 609.707 223.093 611.8 214.4 620.493 209.707 615.8Z" fill="#02609E"/><path d="M209.707 627.8 211.8 625.707 214.4 628.307 221 621.707 223.093 623.8 214.4 632.493 209.707 627.8Z" fill="#02609E"/><path d="M209.707 639.8 211.8 637.707 214.4 640.307 221 633.707 223.093 635.8 214.4 644.493 209.707 639.8Z" fill="#02609E"/></g></svg>