<svg width="96" height="96" xmlns="http://www.w3.org/2000/svg" xmlns:xlink="http://www.w3.org/1999/xlink" xml:space="preserve" overflow="hidden"><defs><clipPath id="clip0"><rect x="341" y="572" width="96" height="96"/></clipPath></defs><g clip-path="url(#clip0)" transform="translate(-341 -572)"><path d="M414 654 364 654 364 592 375 592 375 598 403 598 403 592 414 592ZM389 584C390.657 584 392 585.343 392 587 392 588.657 390.657 590 389 590 387.343 590 386 588.657 386 587 385.973 585.37 387.272 584.027 388.901 584 388.934 583.999 388.967 583.999 389 584ZM416 586 399 586 399 584C399 581.791 397.209 580 395 580L383 580C380.791 580 379 581.791 379 584L379 586 362 586C359.791 586 358 587.791 358 590L358 656C358 658.209 359.791 660 362 660L416 660C418.209 660 420 658.209 420 656L420 590C420 587.791 418.209 586 416 586Z" fill="#81BA47"/><path d="M391 606 408 606 408 610 391 610Z" fill="#81BA47"/><path d="M391 618 408 618 408 622 391 622Z" fill="#81BA47"/><path d="M391 630 408 630 408 634 391 634Z" fill="#81BA47"/><path d="M391 642 408 642 408 646 391 646Z" fill="#81BA47"/><path d="M370.707 607.8 372.8 605.707 375.4 608.307 382 601.707 384.093 603.8 375.4 612.493 370.707 607.8Z" fill="#81BA47"/><path d="M370.707 619.8 372.8 617.707 375.4 620.307 382 613.707 384.093 615.8 375.4 624.493 370.707 619.8Z" fill="#81BA47"/><path d="M370.707 631.8 372.8 629.707 375.4 632.307 382 625.707 384.093 627.8 375.4 636.493 370.707 631.8Z" fill="#81BA47"/><path d="M370.707 643.8 372.8 641.707 375.4 644.307 382 637.707 384.093 639.8 375.4 648.493 370.707 643.8Z" fill="#81BA47"/></g></svg>