<svg width="96" height="96" xmlns="http://www.w3.org/2000/svg" xmlns:xlink="http://www.w3.org/1999/xlink" xml:space="preserve" overflow="hidden"><defs><clipPath id="clip0"><rect x="328" y="447" width="96" height="96"/></clipPath></defs><g clip-path="url(#clip0)" transform="translate(-328 -447)"><path d="M401 529 351 529 351 467 362 467 362 473 390 473 390 467 401 467ZM376 459C377.657 459 379 460.343 379 462 379 463.657 377.657 465 376 465 374.343 465 373 463.657 373 462 372.973 460.37 374.272 459.027 375.901 459 375.934 458.999 375.967 458.999 376 459ZM403 461 386 461 386 459C386 456.791 384.209 455 382 455L370 455C367.791 455 366 456.791 366 459L366 461 349 461C346.791 461 345 462.791 345 465L345 531C345 533.209 346.791 535 349 535L403 535C405.209 535 407 533.209 407 531L407 465C407 462.791 405.209 461 403 461Z" fill="#7CC8F7"/><path d="M378 481 395 481 395 485 378 485Z" fill="#7CC8F7"/><path d="M378 493 395 493 395 497 378 497Z" fill="#7CC8F7"/><path d="M378 505 395 505 395 509 378 509Z" fill="#7CC8F7"/><path d="M378 517 395 517 395 521 378 521Z" fill="#7CC8F7"/><path d="M357.707 482.8 359.8 480.707 362.4 483.307 369 476.707 371.093 478.8 362.4 487.493 357.707 482.8Z" fill="#7CC8F7"/><path d="M357.707 494.8 359.8 492.707 362.4 495.307 369 488.707 371.093 490.8 362.4 499.493 357.707 494.8Z" fill="#7CC8F7"/><path d="M357.707 506.8 359.8 504.707 362.4 507.307 369 500.707 371.093 502.8 362.4 511.493 357.707 506.8Z" fill="#7CC8F7"/><path d="M357.707 518.8 359.8 516.707 362.4 519.307 369 512.707 371.093 514.8 362.4 523.493 357.707 518.8Z" fill="#7CC8F7"/></g></svg>