<svg width="96" height="96" xmlns="http://www.w3.org/2000/svg" xmlns:xlink="http://www.w3.org/1999/xlink" xml:space="preserve" overflow="hidden"><defs><clipPath id="clip0"><rect x="155" y="451" width="96" height="96"/></clipPath></defs><g clip-path="url(#clip0)" transform="translate(-155 -451)"><path d="M228 533 178 533 178 471 189 471 189 477 217 477 217 471 228 471ZM203 463C204.657 463 206 464.343 206 466 206 467.657 204.657 469 203 469 201.343 469 200 467.657 200 466 199.973 464.37 201.272 463.027 202.901 463 202.934 462.999 202.967 462.999 203 463ZM230 465 213 465 213 463C213 460.791 211.209 459 209 459L197 459C194.791 459 193 460.791 193 463L193 465 176 465C173.791 465 172 466.791 172 469L172 535C172 537.209 173.791 539 176 539L230 539C232.209 539 234 537.209 234 535L234 469C234 466.791 232.209 465 230 465Z" fill="#FF9C01"/><path d="M205 485 222 485 222 489 205 489Z" fill="#FF9C01"/><path d="M205 497 222 497 222 501 205 501Z" fill="#FF9C01"/><path d="M205 509 222 509 222 513 205 513Z" fill="#FF9C01"/><path d="M205 521 222 521 222 525 205 525Z" fill="#FF9C01"/><path d="M184.707 486.8 186.8 484.707 189.4 487.307 196 480.707 198.093 482.8 189.4 491.493 184.707 486.8Z" fill="#FF9C01"/><path d="M184.707 498.8 186.8 496.707 189.4 499.307 196 492.707 198.093 494.8 189.4 503.493 184.707 498.8Z" fill="#FF9C01"/><path d="M184.707 510.8 186.8 508.707 189.4 511.307 196 504.707 198.093 506.8 189.4 515.493 184.707 510.8Z" fill="#FF9C01"/><path d="M184.707 522.8 186.8 520.707 189.4 523.307 196 516.707 198.093 518.8 189.4 527.493 184.707 522.8Z" fill="#FF9C01"/></g></svg>